<svg width="100" height="100" viewBox="0 0 100 100" fill="none" xmlns="http://www.w3.org/2000/svg">
    <rect width="100" height="100" rx="22" fill="#F9F8F6"/>
    <g transform="translate(4,4)">
        <g transform="translate(5, 5)">
            <path d="M57.6,27.9c0-15.4-12.5-27.9-27.9-27.9S1.8,12.5,1.8,27.9c0,11.3,6.9,21,16.7,25.4l-0.9,6.9c-0.1,1,0.6,1.8,1.6,1.8c0.1,0,0.2,0,0.4-0.1L29,54.8c1.6,0.2,3.2,0.3,4.9,0.3c15.4,0,27.9-12.5,27.9-27.9z" fill="#50C878" stroke="#004D40" stroke-width="4" stroke-linecap="round" stroke-linejoin="round"/>
            <circle cx="19.2" cy="26" r="3" fill="#004D40"/>
            <path d="M34,26.5 a 6 6 0 0 1 8 0" fill="none" stroke="#004D40" stroke-width="3" stroke-linecap="round"/>
            <path d="M22.9,35.5c0,0,3.7,4.8,9.8,0" fill="none" stroke="#004D40" stroke-width="3" stroke-linecap="round"/>
        </g>
        <g transform="translate(58, 30)">
            <path d="M12,2v20 M2,12h20" fill="none" stroke="#004D40" stroke-width="11" stroke-linecap="round"/>
            <path d="M12,2v20 M2,12h20" fill="none" stroke="#FBBF24" stroke-width="7" stroke-linecap="round"/>
        </g>
    </g>
</svg>